<?xml version="1.0" encoding="utf-8"?>
<!-- Generator: Adobe Illustrator 25.3.1, SVG Export Plug-In . SVG Version: 6.00 Build 0)  -->
<svg version="1.1" xmlns="http://www.w3.org/2000/svg" xmlns:xlink="http://www.w3.org/1999/xlink" x="0px" y="0px"
	 viewBox="0 0 888.7 117" style="enable-background:new 0 0 888.7 117;" xml:space="preserve">
<style type="text/css">
	.st0{opacity:5.000000e-02;}
	.st1{fill:none;stroke:#686C7A;stroke-miterlimit:10;}
	.st2{opacity:1.000000e-02;}
	.st3{fill:#686C7A;}
</style>
<g id="Layer_1">
</g>
<g id="Layer_2">
	<g class="st0">
		<path class="st1" d="M-503.4,155.4c282.8,106,488.2-9.7,662.7-67.6c88.1-30.6,170.3-48.3,256.8-43.7c86.3,3,177,28.3,278.6,45.4
			c123.1,19.9,259.8,24,400.8-91.9"/>
		<path class="st1" d="M-507.7,153.5c283.4,107.5,489.3-6.8,665.9-62.7C247.3,61.1,330.8,44,418.9,48.2
			c87.9,2.5,180.3,26.3,283.5,39.9c125.8,15.8,265,12.7,407.9-113.6"/>
		<path class="st1" d="M-512,151.7c284.5,109.2,491.2-4.2,670.1-58.1c90.3-28.9,175.3-45.2,265.1-41.3
			c89.7,2.2,184.1,24.7,289.2,34.5C840.3,98.1,981.2,87.1,1125.1-49"/>
		<path class="st1" d="M-516.4,149.8c141.8,56.5,265.9,54.7,375.8,34.3C-30.4,163.3,65.8,123.8,157,96.7
			c91.3-28.1,177.7-43.8,269.1-40.3c91.2,1.8,187.4,22.6,294.1,28.9c130.5,7.1,273.9-11.1,419.7-157.8"/>
		<path class="st1" d="M-520.7,147.9c142.2,57.4,266.5,56.2,376.9,36.6C-33.1,164.5,63.7,126,156,99.8
			C248.3,72.5,336.1,57.5,429,60.5c92.8,1.3,190.7,20.5,299,23.2c133.2,2.9,279.1-22.7,426.8-180"/>
		<path class="st1" d="M-525,146c142.1,58.1,266.4,57.7,377.1,39.1C-37,166,60.4,128.7,153.6,103.3C246.8,76.8,335.7,62.2,430,64.5
			c94,0.6,193.4,18,302.8,17.5c136.8-1,286.2-33.1,436.9-202.4"/>
		<path class="st1" d="M-529.4,144c142.5,59,267,59.2,378.2,41.4c111.4-18.3,209.5-54.5,303.7-79c94.2-25.6,184.6-39.6,280.4-37.9
			c95.6,0.1,196.7,15.9,307.6,11.9C880,75.1,1032,35.5,1184.6-144.7"/>
		<path class="st1" d="M-533.7,142c142.8,60,267.6,60.7,379.3,43.8c111.9-17.4,210.7-52.6,305.9-76.3c95.3-24.8,187-38.2,284.4-37
			c97.2-0.4,200,13.7,312.4,6.2c142.2-9.6,296.8-56.8,451.2-247.9"/>
		<path class="st1" d="M-538.1,140c143.3,61,268.5,62.3,380.9,46.1c112.5-16.7,212.3-50.9,308.8-73.7c96.5-24,189.8-36.6,289-35.8
			c99-0.9,203.8,11.7,318.1,0.3C902.9,62.3,1059,7.1,1214.5-193.9"/>
		<path class="st1" d="M-542.5,137.9c143.7,61.9,269.1,63.8,382,48.6c113-15.9,213.5-48.9,311.1-70.9c97.6-23.1,192.3-35.2,293.1-35
			C544.2,79.2,650.8,90,766.6,75c147-19,305.6-81.9,462.9-293.9"/>
		<path class="st1" d="M-546.9,135.9c143.7,62.7,269.1,65.4,382.2,51.1c113.3-14.9,214.3-46.7,312.8-67.9
			c98.4-22.3,194.3-33.9,296.4-34.4c101.8-2.1,209.7,7,326.6-11c150.6-22.9,313.1-93,473.3-317.7"/>
		<path class="st1" d="M-551.3,133.7c144,63.6,269.7,66.9,383.3,53.6c113.8-14,215.6-44.7,315.1-65.1
			c99.5-21.5,196.8-32.5,300.4-33.6c103.4-2.7,213,4.6,331.3-16.8c153.4-27.5,318.4-105.4,480.5-341.3"/>
		<path class="st1" d="M-555.7,131.6c144.3,64.5,270.2,68.5,384.4,56.1c114.3-13.2,216.8-42.7,317.5-62.2
			c100.6-20.6,199.3-31.1,304.5-32.8C555.6,89.4,667,95,786.8,70.1C942.9,38,1110.5-47.9,1274.4-295.1"/>
		<path class="st1" d="M-560.1,129.4c144.9,65.6,271.3,70.1,386.1,58.5c115-12.4,218.4-40.9,320.4-59.5
			c101.9-19.8,202.3-29.6,309.3-31.9c106.8-3.8,220.2-0.1,341.8-29.1c158.1-37.2,327.2-131.4,492.1-388.4"/>
		<path class="st1" d="M-564.5,127.2c145.2,66.6,271.8,71.8,387.2,61.1c115.5-11.5,219.7-38.9,322.8-56.6
			c103-18.9,204.8-28.2,313.4-31.1c108.3-4.5,223.5-2.6,346.5-35C966.2,23.7,1137.9-78.6,1304.6-347"/>
		<path class="st1" d="M-569,124.9c145.8,67.6,272.8,73.4,388.9,63.6c116.2-10.7,221.4-37,325.8-53.8C250,116.7,353.5,108,464,104.4
			c110.2-5.1,227.4-5.2,352.2-41.8c162.8-47,336-157.7,503.5-436"/>
		<path class="st1" d="M-573.4,122.7c146.1,68.6,273.4,75.1,390,66.2C-66.8,179.1,39.2,154,144.8,138
			c105.4-17.2,210.4-25.4,322.5-29.7c111.8-5.8,230.7-7.7,356.9-47.9c165.6-51.8,341.2-170.7,510.6-460.4"/>
	</g>
	<g class="st2">
		<path class="st3" d="M412.1,326.1c-44.2,5.1-88,14.2-131.3,25.1h4.1c42-10.5,84.4-19.2,127.3-24.1c84-9.7,163.3-1.6,236.8,24.1h3
			C577.7,324.7,497.3,316.2,412.1,326.1z"/>
		<path class="st3" d="M447.7,304.5c-74.2,7.9-147.3,26.1-218.8,46.7h3.6c70.4-20.2,142.3-38,215.3-45.7
			c107.2-11.3,207.3,4,298.4,45.7h2.4C656.8,308.8,555.9,293,447.7,304.5z"/>
		<path class="st3" d="M428.6,315.4c-59.1,6.6-117.4,20-174.7,35.7h3.8c56.1-15.3,113.3-28.3,171-34.8
			c96.6-10.9,187.3,0.8,270.3,34.8h2.6C617.8,316.5,526.2,304.5,428.6,315.4z"/>
		<path class="st3" d="M453.4,295.1c-84.3,9.8-167.3,32.2-248.3,56.1h3.5c79.9-23.6,161.7-45.4,244.9-55.1
			c122.6-14.3,236.1,4.3,338.1,55.1h2.2C691.2,299.5,576.9,280.7,453.4,295.1z"/>
		<path class="st3" d="M469.8,284.4c-98,11.2-194.4,38.6-287.9,66.8h3.5c92.5-27.8,187.7-54.8,284.5-65.8
			c133.1-15.1,256.1,7,365.7,65.8h2.1C727.5,291.6,603.8,269.2,469.8,284.4z"/>
		<path class="st3" d="M316.8,278.6c61.4-16.5,136.9-34.8,218-44.5h-8.3c-78.1,9.9-150.7,27.5-210,43.5
			c-57,15.3-114.6,33.1-170.4,50.2c-25.3,7.8-50.8,15.6-76.5,23.3h3.5c24.6-7.4,49-14.9,73.3-22.4
			C202.2,311.7,259.9,293.9,316.8,278.6z"/>
		<path class="st3" d="M387.3,346.4c-11.6,1.3-23.2,2.9-34.8,4.7h6.5c9.4-1.4,18.9-2.7,28.4-3.7c48.2-5.3,94.7-4,139.3,3.7h5.6
			C486,342.5,437.6,340.9,387.3,346.4z"/>
		<path class="st3" d="M406.5,335.5c-31.8,3.3-63.4,8.8-94.7,15.7h4.7c29.8-6.4,59.8-11.5,90.1-14.7c65.6-6.8,128.3-1.8,187.5,14.7
			h3.7C537.5,333.9,473.5,328.6,406.5,335.5z"/>
		<path class="st3" d="M566,268.7C463.7,270,365.3,293,291,312.9c-43.8,11.7-88,25.1-131.1,38.3h3.4c42.1-12.9,85.3-25.9,128-37.3
			c74.3-19.9,172.6-42.9,274.8-44.1c110.5-1.3,215.6,26.1,312.6,81.4h2C783,295.2,677.2,267.4,566,268.7z"/>
		<path class="st3" d="M322.2,270.1c45.8-12.3,99.3-25.7,157-35.9h-5.7c-55.7,10.1-107.2,23-151.6,35
			c-58.7,15.8-118.2,34.1-175.7,51.8c-32.9,10.1-66.1,20.4-99.6,30.2h3.5c32.3-9.6,64.5-19.5,96.4-29.3
			C204,304.2,263.5,285.9,322.2,270.1z"/>
		<path class="st3" d="M326.5,261.8c34.1-9.2,72.3-19,113.2-27.7h-4.8c-39.2,8.5-75.8,17.8-108.6,26.7c-60.1,16.3-121,35-180,53.2
			c-40.6,12.5-81.5,25.1-122.8,37.1H27c40.2-11.7,80-24,119.6-36.2C205.5,296.9,266.4,278.1,326.5,261.8z"/>
		<path class="st3" d="M337,251.9c24.2-6.5,47.5-12.4,70-17.8h-4.3c-21.2,5.1-43.1,10.7-65.9,16.8c-63.5,17.1-127.9,36.9-190.1,56.1
			C98.3,322,49.4,337.1,0,351.2h3.7c48.2-13.8,96-28.5,143.3-43.1C209.2,288.9,273.5,269,337,251.9z"/>
		<path class="st3" d="M626.2,236.9c-2.6,0-5.3,0-7.9,0c-114.3,1.3-224.2,27-307.2,49.2c-55.2,14.8-111.1,32-165.1,48.6
			c-17.8,5.5-35.7,11-53.7,16.4h3.4c16.9-5.1,33.8-10.3,50.6-15.5c54-16.6,109.9-33.8,165.1-48.5c83-22.2,192.8-47.9,307-49.2
			c94.2-1,184.7,16.5,270.3,52.1V289C805.5,254.4,717.6,236.9,626.2,236.9z"/>
		<path class="st3" d="M599.4,247.6c-85,1.1-175.3,15.5-292.6,46.9c-53.6,14.3-108,31-160.5,47.1c-10.4,3.2-20.9,6.4-31.4,9.6h3.4
			c9.4-2.9,18.9-5.8,28.2-8.7c52.5-16.1,106.9-32.8,160.5-47.1c117.2-31.3,207.4-45.8,292.3-46.8c101.3-1.3,198.4,19.6,289.2,62.2
			v-1.1C797.8,267.2,700.8,246.3,599.4,247.6z"/>
		<path class="st3" d="M582.7,258.2c-106.5,1.3-209,25.4-286.4,46.2c-50.2,13.5-101.1,29.1-150.3,44.2c-2.9,0.9-5.8,1.8-8.7,2.7h3.4
			c1.9-0.6,3.7-1.1,5.6-1.7c49.2-15.1,100.1-30.6,150.3-44.1c77.3-20.8,179.8-44.8,286.1-46.2c107.7-1.4,210.5,23.5,305.9,73.8v-1.1
			C793.2,281.6,690.4,256.8,582.7,258.2z"/>
	</g>
</g>
</svg>
